<?xml version="1.0" encoding="UTF-8"?>
<!--Generator: Apple Native CoreSVG 341-->
<!DOCTYPE svg
PUBLIC "-//W3C//DTD SVG 1.1//EN"
       "http://www.w3.org/Graphics/SVG/1.1/DTD/svg11.dtd">
<svg version="1.1" xmlns="http://www.w3.org/2000/svg" xmlns:xlink="http://www.w3.org/1999/xlink" viewBox="0 0 39.0144 27.5808">
 <g>
  <rect height="27.5808" opacity="0" width="39.0144" x="0" y="0"/>
  <path d="M33.2219 19.357L35.2115 21.3484C35.6035 21.7404 35.599 22.3691 35.215 22.7433C34.831 23.1273 34.1971 23.1469 33.8166 22.7531L31.8189 20.7599C31.4349 20.3707 31.4314 19.7375 31.8154 19.3535C32.1994 18.9775 32.8361 18.9793 33.2219 19.357ZM32.1746 13.4918C32.1746 15.7602 30.9386 17.7605 29.1074 18.8452C28.65 15.25 25.7389 12.5883 21.934 12.2107C21.5292 11.5668 21.0623 10.9734 20.5359 10.4448C21.6058 8.54826 23.6409 7.25937 25.9519 7.25937C29.3633 7.25937 32.1746 10.0707 32.1746 13.4918ZM39.0144 13.4998C39.0144 14.0478 38.5711 14.4859 38.023 14.4859L35.2224 14.4859C34.6842 14.4859 34.2213 14.0478 34.2213 13.4998C34.2213 12.9598 34.6842 12.5084 35.2224 12.5084L38.023 12.5084C38.5711 12.5084 39.0144 12.9598 39.0144 13.4998ZM35.2097 4.24199C35.5937 4.62597 35.6017 5.27245 35.208 5.65643L33.2246 7.64609C32.8326 8.03007 32.1924 8.02558 31.8084 7.6496C31.4244 7.26562 31.4244 6.62539 31.8119 6.24941L33.8113 4.2455C34.1971 3.85976 34.8258 3.86601 35.2097 4.24199ZM18.1033 4.24023L20.0912 6.24941C20.4654 6.62089 20.4689 7.27187 20.0867 7.64784C19.7107 8.02382 19.066 8.02206 18.6865 7.64257L16.6986 5.64315C16.3244 5.26893 16.3191 4.62421 16.7031 4.24023C17.0871 3.86425 17.7308 3.8625 18.1033 4.24023ZM26.9523 1.39589L26.9523 4.2125C26.9523 4.74452 26.4947 5.19765 25.9547 5.19765C25.4164 5.19765 24.9588 4.74452 24.9588 4.2125L24.9588 1.39589C24.9588 0.86386 25.4164 0.404487 25.9547 0.404487C26.4947 0.404487 26.9523 0.86386 26.9523 1.39589Z" fill="white" fill-opacity="0.85"/>
  <path d="M7.3959 26.074L21.3394 26.074C24.9125 26.074 27.6734 23.3631 27.6734 19.8605C27.6734 16.3379 24.8408 13.6955 21.0488 13.6732C19.6299 10.9711 17.0871 9.15721 13.7834 9.15721C9.63027 9.15721 6.15606 12.3867 5.77871 16.5721C3.64219 17.1873 2.16406 18.9758 2.16406 21.2846C2.16406 24.0652 4.23574 26.074 7.3959 26.074Z" fill="white" fill-opacity="0.85"/>
 </g>
</svg>
